<svg width="18" height="18" viewBox="0 0 18 18" fill="none" xmlns="http://www.w3.org/2000/svg">
<path d="M16.6042 18L10.3042 11.7C9.80418 12.1 9.22918 12.4167 8.57918 12.65C7.92918 12.8833 7.23751 13 6.50418 13C4.68751 13 3.15001 12.3708 1.89168 11.1125C0.633348 9.85417 0.00418091 8.31667 0.00418091 6.5C0.00418091 4.68333 0.633348 3.14583 1.89168 1.8875C3.15001 0.629167 4.68751 0 6.50418 0C8.32085 0 9.85835 0.629167 11.1167 1.8875C12.375 3.14583 13.0042 4.68333 13.0042 6.5C13.0042 7.23333 12.8875 7.925 12.6542 8.575C12.4208 9.225 12.1042 9.8 11.7042 10.3L18.0042 16.6L16.6042 18ZM6.50418 11C7.75418 11 8.81668 10.5625 9.69168 9.6875C10.5667 8.8125 11.0042 7.75 11.0042 6.5C11.0042 5.25 10.5667 4.1875 9.69168 3.3125C8.81668 2.4375 7.75418 2 6.50418 2C5.25418 2 4.19168 2.4375 3.31668 3.3125C2.44168 4.1875 2.00418 5.25 2.00418 6.5C2.00418 7.75 2.44168 8.8125 3.31668 9.6875C4.19168 10.5625 5.25418 11 6.50418 11Z" fill="#BBBBBB"/>
</svg>
